<svg xmlns="http://www.w3.org/2000/svg" height="512" viewBox="0 0 512 512" width="512"><path d="m211.3 89.3c-4.1 0-7.5-3.4-7.5-7.5v-12c0-4.1 3.4-7.5 7.5-7.5s7.5 3.4 7.5 7.5v12c0 4.1-3.4 7.5-7.5 7.5z"/><path d="m286 125.8c-17.2 0-31.2-15.3-31.2-34 0-23.5 21.9-23.5 31.2-23.5s31.2 0 31.2 23.5c0 18.8-14 34-31.2 34zm0-42.5c-15.5 0-16.2 2.6-16.2 8.5 0 10.5 7.3 19 16.2 19s16.2-8.5 16.2-19c0-5.9-0.7-8.5-16.2-8.5z"/><path d="m360.7 89.3c-4.1 0-7.5-3.4-7.5-7.5v-12c0-4.1 3.4-7.5 7.5-7.5s7.5 3.4 7.5 7.5v12c0 4.1-3.4 7.5-7.5 7.5z"/><path d="m163.6 251.1c-4.1 0-7.5-3.4-7.5-7.5v-12c0-4.1 3.4-7.5 7.5-7.5s7.5 3.4 7.5 7.5v12c0 4.1-3.4 7.5-7.5 7.5z"/><path d="m288.4 251.1c-4.1 0-7.5-3.4-7.5-7.5v-12c0-4.1 3.4-7.5 7.5-7.5s7.5 3.4 7.5 7.5v12c0 4.1-3.4 7.5-7.5 7.5z"/><path d="m226 258.2c-8.5 0-16.5-3.7-22.1-10.1-2.7-3.1-2.4-7.9-10.6 3.1-2.7 7.9-2.4 10.6 2.7 3.1 6.7 4.9 10.8 4.9s8.1-1.8 10.8-4.9c2.7-3.1 7.5-3.4 10.6-0.7 3.1 2.7 3.4 7.5 10.6-5.6 6.4-13.6 10.1-22.1 10.1z"/><path d="m484.5 457h-191v-132h27.8c4.1 0 7.5-3.4 7.5-7.5s-3.4-7.5-7.5-7.5h-216.6c-4.2 0-8.1-2.1-10.4-5.6l-26.7-40c-2.8-4.2-2.8-9.7 0-13.9l26.7-40c2.3-3.5 6.2-5.6 10.4-5.6h269.3c6.9 0 12.5 5.6 12.5 12.5v80c0 6.9-5.6 12.5-12.5 12.5h-22.7c-4.1 0-7.5 3.4-7.5 7.5s3.4 7.5 7.5 7.5h22.7c15.2 0 27.5-12.3 27.5-27.5v-80c0-15.2-12.3-27.5-27.5-27.5h-80.5v-25h113.8c9.2 0 17.8-4.6 22.9-12.2l26.7-40c6.2-9.3 6.2-21.2 0-30.5l-26.7-40c-5.1-7.7-13.7-12.2-22.9-12.2h-114.6c-3.5-17.2-18.7-30-36.7-30-18.1 0-33.3 12.8-36.7 30h-81.2c-15.2 0-27.5 12.3-27.5 27.5v25c0 4.1 3.4 7.5 7.5 7.5s7.5-3.4 7.5-7.5v-25c0-6.9 5.6-12.5 12.5-12.5h269.3c4.2 0 8.1 2.1 10.4 5.6l26.7 40c2.8 4.2 2.8 9.7 0 13.9l-26.7 40c-2.3 3.5-6.2 5.6-10.4 5.6h-269.3c-6.9 0-12.5-5.6-12.5-12.5v-25c0-4.1-3.4-7.5-7.5-7.5s-7.5 3.4-7.5 7.5v25c0 15.2 12.3 27.5 27.5 27.5h80.5v25h-113.8c-9.2 0-17.8 4.6-22.9 12.2l-26.7 40c-6.2 9.3-6.2 21.2 0 30.5l26.7 40c5.1 7.7 13.7 12.2 22.9 12.2h113.8v132h-191c-15.2 0-27.5 12.3-27.5 27.5s12.3 27.5 27.5 27.5h457c15.2 0 27.5-12.3 27.5-27.5s-12.3-27.5-27.5-27.5zm-228.5-442c9.8 0 18.1 6.2 21.2 15h-42.4c3.1-8.8 11.4-15 21.2-15zm-22.5 150h45v25h-45zm0 160h45v132h-45zm251 172h-457c-6.9 0-12.5-5.6-12.5-12.5s5.6-12.5 12.5-12.5h457c6.9 0 12.5 5.6 12.5 12.5s-5.6 12.5-12.5 12.5z"/></svg>