<svg id="Layer_1" enable-background="new 0 0 512.002 512.002" height="512" viewBox="0 0 512.002 512.002" width="512" xmlns="http://www.w3.org/2000/svg"><g><path d="m497.001 422.002h-86.044c9.438-12.544 15.041-28.129 15.041-45v-3.026c47.603-1.067 86-40.12 86-87.974v-37c0-24.813-20.187-45-45-45h-41v-43c0-8.284-6.716-15-15-15h-309.999c-8.284 0-15 6.716-15 15v111.821c-23.317-9.523-48.041-13.158-71.791-10.006-6.718.892-12.004 6.178-12.896 12.896-5.887 44.346 11.865 92.087 47.486 127.708 6.874 6.874 14.2 13.079 21.864 18.581h-55.661c-8.284 0-15 6.716-15 15v.998c0 40.805 33.197 74.002 74.002 74.002h363.994c40.806 0 74.003-33.197 74.003-74.002v-.998c.001-8.284-6.715-15-14.999-15zm-30.003-188c8.271 0 15 6.729 15 15v37c0 31.312-24.941 56.908-56 57.966v-109.966zm-350.999-58h279.999v201c0 24.813-20.187 45-45 45h-143.842c16.169-23.326 25.342-52.922 25.342-83.815 0-44.978-18.963-86.349-50.727-110.668-5.381-4.12-12.856-4.12-18.237 0-19.997 15.31-35.267 37.996-43.596 64.131-1.303-.934-2.617-1.846-3.939-2.738zm72.16 219.846c-5.474-29.482-20.338-58.335-42.966-82.182 4.224-21.285 13.933-40.353 27.476-54.235 18.854 19.213 29.829 47.765 29.829 78.755 0 20.904-5.126 40.927-14.339 57.662zm-118.148-13.64c-25.771-25.771-40.142-58.836-39.812-90.505 31.645-.322 64.735 14.042 90.505 39.812 25.766 25.766 40.136 58.823 39.811 90.486h-2.742c-30.826-.5-62.734-14.766-87.762-39.793zm367.987 99.794h-363.994c-19.37 0-35.857-12.581-41.719-30h447.433c-5.863 17.419-22.35 30-41.72 30z"/><path d="m242.451 96.502c2.778 4.813 7.82 7.502 13.004 7.502 2.544 0 5.124-.648 7.486-2.012 7.174-4.142 9.632-13.316 5.489-20.49-4.632-8.024-2.943-11.828 1.137-21.019 5.099-11.483 12.804-28.836-1.136-52.981-4.142-7.173-13.314-9.632-20.491-5.49-7.174 4.142-9.632 13.315-5.49 20.49 6.307 10.924 4.098 15.898-.302 25.808-4.763 10.731-11.963 26.947.303 48.192z"/><path d="m310.3 96.502c2.778 4.813 7.82 7.502 13.004 7.502 2.545 0 5.125-.648 7.486-2.012 7.175-4.142 9.633-13.316 5.49-20.49-4.633-8.024-2.944-11.828 1.137-21.019 5.099-11.483 12.803-28.836-1.137-52.981-4.143-7.176-13.317-9.631-20.49-5.491-7.174 4.142-9.633 13.316-5.49 20.49 6.307 10.924 4.098 15.898-.302 25.808-4.765 10.732-11.965 26.948.302 48.193z"/><path d="m174.602 96.502c2.778 4.813 7.82 7.502 13.004 7.502 2.544 0 5.124-.648 7.486-2.012 7.174-4.142 9.632-13.316 5.49-20.49-4.632-8.024-2.944-11.828 1.137-21.018 5.099-11.483 12.804-28.836-1.137-52.982-4.142-7.174-13.316-9.632-20.49-5.49s-9.632 13.316-5.49 20.49c6.307 10.924 4.099 15.898-.301 25.808-4.765 10.731-11.965 26.947.301 48.192z"/></g></svg>