<svg xmlns="http://www.w3.org/2000/svg" viewBox="0 0 512 512"><path d="M511.6 499.3c-9.8-34.7-30.9-66-59.7-88.1 -17.5-13.5-37.1-23.2-57.9-28.9 0.9-10.3 9.5-18.5 20.1-18.5 5.5 0 10-4.5 10-10s-4.5-10-10-10c-12 0-22.8 5.3-30.2 13.7 -7.4-8.4-18.2-13.7-30.2-13.7 -5.5 0-10 4.5-10 10s4.5 10 10 10c9 0 16.7 5.9 19.2 14.1 -7.8-1.1-15.8-1.7-23.9-1.7 -6 0-12 0.3-18 1 -14-22.6-37.1-37.6-63.2-41.1 0.1-0.1 0.1-0.1 0.2-0.2l36.5-36.5c6.5 1.5 17.9 3.6 32.2 3.6 3.1 0 6.3-0.1 9.6-0.3 25.4-1.6 63-10.8 97.4-45.3 34.4-34.4 43.6-72 45.3-97.4 1.8-27.6-4.7-47.2-5-48 -1.1-3.2-3.8-5.7-7-6.5l-0.1 0c-10.6-3.1-23.4-4.9-36.1-5 0 0-0.1 0-0.1 0 -5.5 0-9.9 4.4-10 9.9 -0.1 5.5 4.4 10.1 9.9 10.1 11 0.1 19.8 1.6 25.8 3 1.5 6.8 3.7 19.9 2.6 36.2 -2.2 31.7-15.5 59.8-39.4 83.7 -23.9 23.9-52.1 37.1-83.7 39.4 -9.2 0.7-17.5 0.2-24.1-0.5l73.3-73.3c3.9-3.9 3.9-10.2 0-14.1 -3.9-3.9-10.2-3.9-14.1 0L307.8 268c-2.7-23.7-0.9-68 38.8-107.8 7.8-7.8 16.2-14.6 24.9-20.1 4.7-3 6.1-9.1 3.1-13.8 -3-4.7-9.1-6.1-13.8-3.1 -10 6.3-19.5 14-28.4 22.8 -34.4 34.4-43.6 72-45.3 97.4 -1.2 18.8 1.4 33.9 3.3 41.8l-24.5 24.5V128.3c1.2 0 2.4 0 3.7 0 19.6 0 54.7-3.5 77.9-26.3 31.2-30.6 27-84 26.1-92.2 -0.1-2.4-1.1-4.7-2.9-6.5 -1.8-1.8-4.1-2.7-6.4-2.9 -4.8-0.4-58.7-4.3-90.6 26.9 -28.7 28.1-28.4 74.6-27.6 88.2 -0.2 0.7-0.2 1.4-0.2 2.2v38.2c-5.9-9.8-13.5-19.7-23.2-29.4 -32.8-32.8-68.6-41.6-92.8-43.1 -26.3-1.7-45 4.5-45.8 4.7 -3.2 1.1-5.7 3.8-6.5 7l0 0.1c-3.7 12.8-19.4 79.7 38.6 137.8 32.8 32.8 68.6 41.6 92.8 43.1 3.2 0.2 6.2 0.3 9.2 0.3 11.6 0 21.2-1.4 27.6-2.7v62.3c-26.9 3-50.9 18.2-65.1 41.3 -6-0.6-12-1-18-1 -8.1 0-16 0.6-23.9 1.7 2.6-8.2 10.2-14.1 19.2-14.1 5.5 0 10-4.5 10-10s-4.5-10-10-10c-12 0-22.8 5.3-30.2 13.7 -7.4-8.4-18.2-13.7-30.2-13.7 -5.5 0-10 4.5-10 10s4.5 10 10 10c10.5 0 19.2 8.1 20.1 18.5 -20.8 5.7-40.3 15.4-57.9 28.9 -28.7 22.1-49.9 53.4-59.7 88.1 -0.8 3-0.2 6.2 1.7 8.7s4.8 4 8 4h492c3.1 0 6.1-1.5 8-4S512.5 502.3 511.6 499.3zM287.8 41.6c19.4-19.1 51.3-21.5 66.4-21.5 0.4 15.5-1.2 48.6-20.7 67.7 -14.6 14.4-36.6 18.9-53.2 20.1l30.1-30.1c3.9-3.9 3.9-10.2 0-14.1 -3.9-3.9-10.2-3.9-14.1 0L266.7 93.2C268.3 77 273.4 55.8 287.8 41.6zM246 236.3c-0.1 1.8-0.3 3.5-0.4 5.2l-58.4-58.4c-3.9-3.9-10.2-3.9-14.1 0 -3.9 3.9-3.9 10.2 0 14.1l58.4 58.4c-22.6 2.4-63.8 0.2-100.9-36.9 -44.8-44.8-38.9-95.1-34.8-113.1 6.5-1.4 18.8-3.4 33.9-2.4 29.9 2.1 56.5 14.7 79.1 37.2s35.1 49.2 37.2 79.1c0 0.3 0 0.5 0 0.8V236.3zM79.2 492L79.2 492c9.2-20.6 25.7-37.1 46.8-46.4 5.1-2.2 7.4-8.1 5.1-13.2 -2.2-5.1-8.1-7.4-13.2-5.1C89.6 439.8 68 463.1 57.7 492H23.8c21.7-57 77.1-95.7 139-95.7 7.3 0 14.7 0.5 22 1.6 4.2 0.6 8.4-1.5 10.4-5.3 11.8-23 35.1-37.2 60.8-37.2s49.1 14.3 60.8 37.2c2 3.8 6.1 6 10.4 5.3 7.3-1.1 14.7-1.6 22-1.6 61.9 0 117.2 38.7 139 95.7H79.2z"/><path d="M412.1 112.8c-1.5-5.3-7-8.4-12.3-7l-0.8 0.2c-5.3 1.5-8.4 7.1-6.9 12.4 1.3 4.4 5.3 7.2 9.6 7.2 0.9 0 1.8-0.1 2.8-0.4l0.6-0.2C410.5 123.6 413.6 118.1 412.1 112.8z"/><path d="M162.8 417.9l-0.6 0c-5.5 0-10 4.5-9.9 10.1 0 5.5 4.5 9.9 10 9.9 0 0 0 0 0.1 0l0.5 0c5.5 0 10-4.5 10-10S168.3 417.9 162.8 417.9z"/></svg>