<svg xmlns="http://www.w3.org/2000/svg" height="512" viewBox="0 0 511.7 511.7" width="512"><path d="m147.9 379.1c-22.4-1.1-21.9-32.6 0-33.7 62.1 226 290.1 17.5 0 32.5-11.9 36.5-29l36.4-157.6c2.1-9 0-18.4-5.8-25.6s-14.4-11.5-23.6-11.5c-25.8 0-244.7-1-356.8-1.4l-17.8-66c-4.3-15.8-18.6-26.8-35-26.8h-56.9c-8.3 0-15 6.7-15 15s6.7 15 15 15h56.9c2.8 0 5.3 1.9 6 4.6l68.3 253.3c-12-23.2 5.3-31.7 13.9-8.9 9-13.7 21-13.5 33.7 25.4 21.5 46 46.8 46h21.9c-3.3 6.8-5.1 14.5-5.1 22.5 0 29 23.6 52.5 52.5 52.5s52.5-23.6 52.5-52.5c0-8-1.8-15.7-5.1-22.5h94.7c-3.2 6.8-5.1 14.4-5.1 22.5 0 29 23.6 52.5 52.5 52.5 29 0 52.5-23.6 52.5-52.5 0-8.4-2-16.3-5.5-23.3 5.9-2 10.2-7.6 10.2-14.2 0-8.3-6.7-15-15-15zm91.8 52.5c0 12.4-10.1 22.5-22.5 22.5s-22.5-10.1-22.5-22.5c0-12.4 10.1-22.5 22.5-22.5h0c12.4 22.5 10.1 22.5 22.5zm167.1 22.5c-12.4 0-22.5-10.1-22.5-22.5 0-12.3 9.9-22.3 22.1-22.5h0.7c12.2 22.1 10.2 22.1 22.5 0 12.4-10.1 22.5-22.5 22.5zm74.9-302.2c0.1l-15.3 66.4h-51.9l8.8-67 58.1c0.1zm-154.6 163.7v-67h53.2l-8.8 67zm-74.4 0-8.9-67h53.3v67zm-69.1 0h0c-3.7 0-6.9-2.5-7.8-6l-16.4-61h54.2l8.9 67zm56.1-97-9-67.8 66.3v67.5zm87.3 0v-67.4l66-8.9 67.1zm-126.6-67.9 9 67.9h-58.3l-18.4-68.2zm237.6 164.9h-36.4l8.8-67h49l-14.1 61.2c-0.8 3.4-3.8 5.8-7.2 5.8z"/></svg>