<svg xmlns="http://www.w3.org/2000/svg" viewBox="0 0 219.8 219.8"><path d="M109.9 183.5c-4.1 0-7.5 3.4-7.5 7.5v21.3c0 4.1 3.4 7.5 7.5 7.5 4.1 0 7.5-3.4 7.5-7.5V191C117.4 186.8 114 183.5 109.9 183.5z"/><path d="M109.9 36.3c4.1 0 7.5-3.4 7.5-7.5V7.5c0-4.1-3.4-7.5-7.5-7.5 -4.1 0-7.5 3.4-7.5 7.5v21.3C102.4 33 105.7 36.3 109.9 36.3z"/><path d="M47.3 161.9l-15.1 15.1c-2.9 2.9-2.9 7.7 0 10.6 1.5 1.5 3.4 2.2 5.3 2.2 1.9 0 3.8-0.7 5.3-2.2l15.1-15.1c2.9-2.9 2.9-7.7 0-10.6C54.9 159 50.2 159 47.3 161.9z"/><path d="M167.2 60.1c1.9 0 3.8-0.7 5.3-2.2l15.1-15.1c2.9-2.9 2.9-7.7 0-10.6 -2.9-2.9-7.7-2.9-10.6 0l-15.1 15.1c-2.9 2.9-2.9 7.7 0 10.6C163.4 59.3 165.3 60.1 167.2 60.1z"/><path d="M36.3 109.9c0-4.1-3.4-7.5-7.5-7.5H7.5c-4.1 0-7.5 3.4-7.5 7.5 0 4.1 3.4 7.5 7.5 7.5h21.3C33 117.4 36.3 114 36.3 109.9z"/><path d="M212.3 102.4h-21.3c-4.1 0-7.5 3.4-7.5 7.5 0 4.1 3.4 7.5 7.5 7.5h21.3c4.1 0 7.5-3.4 7.5-7.5C219.8 105.8 216.4 102.4 212.3 102.4z"/><path d="M47.3 57.9c1.5 1.5 3.4 2.2 5.3 2.2 1.9 0 3.8-0.7 5.3-2.2 2.9-2.9 2.9-7.7 0-10.6L42.8 32.2c-2.9-2.9-7.7-2.9-10.6 0 -2.9 2.9-2.9 7.7 0 10.6L47.3 57.9z"/><path d="M172.5 161.9c-2.9-2.9-7.7-2.9-10.6 0 -2.9 2.9-2.9 7.7 0 10.6l15.1 15.1c1.5 1.5 3.4 2.2 5.3 2.2 1.9 0 3.8-0.7 5.3-2.2 2.9-2.9 2.9-7.7 0-10.6L172.5 161.9z"/><path d="M109.9 51.5c-32.2 0-58.4 26.2-58.4 58.4 0 32.2 26.2 58.4 58.4 58.4 32.2 0 58.4-26.2 58.4-58.4C168.3 77.7 142.1 51.5 109.9 51.5zM109.9 153.3c-23.9 0-43.4-19.5-43.4-43.4 0-23.9 19.5-43.4 43.4-43.4 23.9 0 43.4 19.5 43.4 43.4C153.3 133.8 133.8 153.3 109.9 153.3z"/></svg>